<svg xmlns="http://www.w3.org/2000/svg" width="800" height="436" viewBox="222 172 830 432" role="img" aria-labelledby="title desc">
  <title id="title">Isolated logo mark</title>
  <desc id="desc">A tightly cropped vector logo mark with a transparent background, white eye shape, red braces, and a central target.</desc>
  <g id="logo-mark" fill-rule="evenodd">
    <path id="eye-shape" fill="#344327" stroke="#b6ff6a" stroke-width="18" stroke-linejoin="round" d="M664.32 598.96C589.41 602.68 528 592.78 460 566C442.63 559.16 398.84 537.27 388 530C386.62 529.08 380.77 525.26 375 521.52C359.39 511.39 342.33 499.01 325.5 485.58C308.03 471.64 269.48 433.71 254.4 415.62C241.06 399.62 234.05 390.68 234.02 389.64C233.99 388.57 244.16 376.21 257.96 360.53C311.5 299.7 373.33 252.09 435.98 223.44C483.02 201.93 533.18 188.87 588 183.84C605.06 182.28 660.14 182.24 678.19 183.77C699.79 185.61 731.71 190.92 752.5 196.13C833.02 216.31 905.1 256.82 974.33 320.8C996.42 341.21 1039 387.72 1039 391.43C1039 395.87 993.06 444.88 967.03 468.23C912.95 516.73 844.51 556.79 779.68 577.9C744.73 589.27 701.9 597.1 664.32 598.96Z"/>
    <path id="red-symbol" fill="#b6ff6a" d="M664.09 508.42C655.23 510.1 632.42 510.39 621.5 508.96C597.13 505.77 569.84 492.5 551.65 475C534.8 458.78 524.93 443.31 518.15 422.5C513.64 408.64 512.67 400.38 513.29 381.3C513.92 361.77 516.09 352.19 523.44 336.47C529.86 322.73 536.12 314 548.5 301.5C565.35 284.49 581.12 274.93 603.3 268.26L615.5 264.59L637 264.55C657.35 264.5 659.04 264.65 668.6 267.23C691.82 273.5 707.51 282.6 725.77 300.39C747.65 321.69 760.68 348.81 762.9 377.61C765.85 415.93 754.12 449.68 729.19 474.61C712.14 491.66 688.95 503.71 664.09 508.42ZM628 482.91C639.3 484.16 644.48 484.1 656.01 482.56C686.35 478.52 713.46 459.06 727.35 431.35C740.9 404.31 740.92 371.54 727.4 344.78C718.6 327.39 702.72 310.84 686 301.66C646.44 279.95 599.26 287.17 567.85 319.75C555.48 332.58 547.38 347.43 543.33 364.69C540.72 375.84 540.89 397.55 543.69 408.5C554.17 449.54 586.82 478.35 628 482.91ZM533.35 559.06C523.28 561.4 501.02 557.91 484 551.33C456.24 540.59 438.62 523.25 430.15 498.33C427.51 490.54 425.27 473.25 424.16 451.9C423.38 437.04 423 434.68 420.59 429.4C416.04 419.46 410.87 415.43 398.75 412.39C390.46 410.31 384.69 406.85 381.84 402.26C379.79 398.97 379.5 397.25 379.51 388.5C379.51 379.56 379.77 378.12 381.95 374.88C385.21 370.06 389.46 367.29 396.36 365.5C407.69 362.54 413.72 358.4 417.48 351C420.9 344.27 421.91 337.61 422.99 314.5C423.58 302 424.61 291.09 425.53 287.56C431.92 263.01 446.04 245.91 471.39 231.99C486.14 223.9 520.19 214.9 530.31 216.42C540.5 217.95 545.01 224.19 544.98 236.71C544.95 246.05 542.9 251.31 537.78 255.22C532.38 259.34 528.57 260.73 515.14 263.47C493.93 267.8 486.6 273.59 481.52 290C480.28 293.98 479.58 301.58 478.98 317.58C478.02 342.71 475.99 354.01 470.43 365.1C466.32 373.32 458.37 382.13 451.91 385.64C449.21 387.11 447 388.61 447 388.97C447 389.33 448.53 390.36 450.39 391.25C456.47 394.15 466.48 404.48 470.25 411.75C477.23 425.21 479.19 435.3 480.5 464.5C481.56 488.3 484.02 496.33 492.56 503.84C498.08 508.7 505.68 511.75 515.41 513.01C529.8 514.87 538.41 519.07 542.98 526.46C544.85 529.49 545.25 531.61 545.3 538.81C545.4 550.9 541.73 557.11 533.35 559.06ZM772.5 556.01C759.32 559.45 739.78 560.99 735 558.95C725.56 554.92 721.53 541.68 726.06 529.56C729.63 520.03 738.23 515.21 755.5 513.08C775.37 510.63 785.26 503.48 790.08 488.09C791.74 482.81 792.33 477.13 793.04 459.5C794.08 433.76 795.8 425.04 802.24 412.66C806.88 403.74 815.49 394.45 822.2 391.13L826.21 389.15L821.85 386.93C816.28 384.09 810.94 379.52 806.67 373.92C797.3 361.64 794.14 349.08 792.98 319.5C792.06 295.94 791.14 290.71 786.37 281.93C780.77 271.64 773.81 268.01 749.21 262.54C735.15 259.42 730.35 256.46 726.45 248.49C724.01 243.5 723.79 242.16 724.19 234.56C724.92 220.71 729.37 216.35 742.5 216.67C761.41 217.12 790.01 226.89 808.5 239.22C820.89 247.49 834.34 262.65 839.11 273.74C844.29 285.78 846.1 295.65 847.05 317.09C848.21 343.2 849.73 349.01 857.36 356.63C861.66 360.91 863.73 362.12 870 364.01C874.12 365.25 878.83 366.75 880.45 367.34C884.19 368.69 889.69 373.5 891.5 376.99C895.42 384.59 894.04 398.61 888.77 404.61C885.02 408.88 881.7 410.66 874.8 412.11C861.79 414.85 853.83 421.41 849.85 432.65C848.17 437.41 847.62 442.41 846.9 459.5C845.9 483.18 844.02 494.39 839.08 506.19C835.3 515.22 828.05 525.92 822.01 531.37C810.64 541.64 792.05 550.89 772.5 556.01ZM650.8 456.97C646.26 457.53 641.19 457.94 639.53 457.87C604.61 456.41 578.49 437.24 568.87 406C565.45 394.88 565.7 377.83 569.46 366C572.96 355.01 578.56 345.56 586.71 336.92C613.78 308.23 659.48 306.86 688.19 333.86C701.03 345.94 707.24 356.49 711.17 372.9C713.65 383.25 713.24 397.91 710.21 407.55C701.73 434.5 678.97 453.43 650.8 456.97Z"/>
  </g>
</svg>
